#!OML:ASF E:\motion texture\Top Level 1\Subject 1\Session 1\male.ASF
:FULLY-SPECIFIED
:DEGREES
434
root -13.9317 18.169 1.8202 51.0187 -80.3176 -41.6423
lowerback 1.90269 2.39997 4.91962
upperback -1.61274 3.35705 5.08376
thorax -2.75589 1.57592 2.3541
lowerneck -14.1853 3.36933 -0.290741
upperneck 7.2845 4.33061 2.05646
head 4.42546 2.2476 1.0199
rclavicle 9.54166e-015 -1.19271e-014
rhumerus -19.5862 -10.2142 -82.4594
rradius 26.6287
rwrist 15.5317
rhand -14.1631 -28.8201
rfingers 7.12502
rthumb 11.9718 -58.4577
lclavicle 9.54166e-015 -1.19271e-014
lhumerus -31.0148 9.54172 79.7646
lradius 42.7442
lwrist -17.0642
lhand -16.5608 22.0715
lfingers 7.12502
lthumb 9.65912 51.8301
rfemur -18.0295 -0.606069 32.1695
rtibia 15.0839
rfoot -3.81865 -14.9152
rtoes 22.1199
lfemur -18.9926 -2.37947 -7.24452
ltibia 50.0341
lfoot 1.54349 -1.05453
ltoes -24.0154
435
root -14.0685 18.172 1.81582 52.9711 -80.4446 -43.6364
lowerback 1.90749 2.50284 5.12941
upperback -1.60085 3.49727 5.10618
thorax -2.73651 1.6406 2.25584
lowerneck -14.1787 3.38055 -0.259238
upperneck 7.38012 4.33566 2.08788
head 4.45398 2.25324 1.02625
rclavicle -2.46493e-014 -3.81667e-014
rhumerus -18.7347 -8.96834 -83.1267
rradius 27.1524
rwrist 15.2551
rhand -14.1559 -28.6821
rfingers 7.12502
rthumb 11.9788 -58.3194
lclavicle -2.46493e-014 -3.81667e-014
lhumerus -31.0164 9.21551 80.0822
lradius 42.7236
lwrist -17.3007
lhand -16.4446 21.9133
lfingers 7.12502
lthumb 9.77126 51.6666
rfemur -17.4106 -0.461761 32.439
rtibia 14.9826
rfoot -4.18544 -14.6895
rtoes 21.9025
lfemur -19.8832 -2.21449 -7.04423
ltibia 50.5913
lfoot 1.26192 -0.900981
ltoes -23.6856
436
root -14.2054 18.1743 1.81183 54.9466 -80.5601 -45.6488
lowerback 1.90674 2.6055 5.33713
upperback -1.59055 3.6367 5.1242
thorax -2.71461 1.705 2.15467
lowerneck -14.1784 3.3884 -0.231781
upperneck 7.48329 4.33616 2.12491
head 4.48572 2.25695 1.03488
rclavicle -4.23411e-014 1.66979e-014
rhumerus -17.9248 -7.74205 -83.7315
rradius 27.6996
rwrist 14.9662
rhand -14.1531 -28.5596
rfingers 7.12502
rthumb 11.9815 -58.1967
lclavicle -4.23411e-014 1.66979e-014
lhumerus -31.0322 8.9064 80.3949
lradius 42.6859
lwrist -17.5284
lhand -16.3185 21.7589
lfingers 7.12502
lthumb 9.89291 51.5065
rfemur -16.7979 -0.318576 32.6987
rtibia 14.8856
rfoot -4.54988 -14.4752
rtoes 21.6719
lfemur -20.756 -2.05309 -6.8524
ltibia 51.0252
lfoot 0.924306 -0.726081
ltoes -23.3585
437
root -14.3424 18.1761 1.80826 56.9381 -80.665 -47.6749
lowerback 1.90418 2.70723 5.54218
upperback -1.58208 3.77474 5.13769
thorax -2.69255 1.76878 2.05069
lowerneck -14.1828 3.39398 -0.207367
upperneck 7.59112 4.33353 2.16639
head 4.51955 2.25938 1.0453
rclavicle -2.79292e-014 2.70347e-014
rhumerus -17.1573 -6.54163 -84.2769
rradius 28.2703
rwrist 14.6677
rhand -14.1546 -28.4513
rfingers 7.12502
rthumb 11.98 -58.0884
lclavicle -2.79292e-014 2.70347e-014
lhumerus -31.0611 8.61802 80.7014
lradius 42.6269
lwrist -17.7433
lhand -16.1888 21.6082
lfingers 7.12502
lthumb 10.0181 51.3498
rfemur -16.1875 -0.174266 32.9475
rtibia 14.7916
rfoot -4.91085 -14.273
rtoes 21.4241
lfemur -21.6026 -1.897 -6.66959
ltibia 51.3274
lfoot 0.536933 -0.529445
ltoes -23.0182
438
root -14.4796 18.1774 1.8051 58.9408 -80.7599 -49.7073
lowerback 1.89647 2.80811 5.74354
upperback -1.57577 3.91114 5.14648
thorax -2.66888 1.83189 1.94445
lowerneck -14.193 3.39683 -0.185513
upperneck 7.70436 4.32718 2.21101
head 4.55593 2.26017 1.05702
rclavicle 2.5345e-014 2.3059e-014
rhumerus -16.4312 -5.3698 -84.7662
rradius 28.8646
rwrist 14.3584
rhand -14.1608 -28.3543
rfingers 7.12502
rthumb 11.974 -57.9918
lclavicle 2.5345e-014 2.3059e-014
lhumerus -31.1046 8.35076 81.0007
lradius 42.5498
lwrist -17.9452
lhand -16.0518 21.4668
lfingers 7.12502
lthumb 10.1502 51.202
rfemur -15.5831 -0.0289403 33.185
rtibia 14.7026
rfoot -5.27137 -14.0835
rtoes 21.1684
lfemur -22.4223 -1.74665 -6.4964
ltibia 51.4938
lfoot 0.105099 -0.312972
ltoes -22.6746
